<?xml version="1.0" encoding="UTF-8" standalone="no"?>
<!-- Created with Inkscape (http://www.inkscape.org/) -->

<svg
   xmlns:dc="http://purl.org/dc/elements/1.1/"
   xmlns:cc="http://creativecommons.org/ns#"
   xmlns:rdf="http://www.w3.org/1999/02/22-rdf-syntax-ns#"
   xmlns:svg="http://www.w3.org/2000/svg"
   xmlns="http://www.w3.org/2000/svg"
   xmlns:sodipodi="http://sodipodi.sourceforge.net/DTD/sodipodi-0.dtd"
   xmlns:inkscape="http://www.inkscape.org/namespaces/inkscape"
   id="svg2"
   version="1.1"
   inkscape:version="0.48.5 r10040"
   width="163.02286"
   height="135.83037"
   xml:space="preserve"
   sodipodi:docname="positive_whitehead_link.pdf"><metadata
     id="metadata8"><rdf:RDF><cc:Work
         rdf:about=""><dc:format>image/svg+xml</dc:format><dc:type
           rdf:resource="http://purl.org/dc/dcmitype/StillImage" /><dc:title></dc:title></cc:Work></rdf:RDF></metadata><defs
     id="defs6" /><sodipodi:namedview
     pagecolor="#ffffff"
     bordercolor="#666666"
     borderopacity="1"
     objecttolerance="10"
     gridtolerance="10"
     guidetolerance="10"
     inkscape:pageopacity="0"
     inkscape:pageshadow="2"
     inkscape:window-width="1920"
     inkscape:window-height="1134"
     id="namedview4"
     showgrid="false"
     units="cm"
     fit-margin-top="0.1"
     fit-margin-left="0.1"
     fit-margin-bottom="0.1"
     fit-margin-right="0.1"
     inkscape:zoom="2.0550928"
     inkscape:cx="-58.441252"
     inkscape:cy="81.863583"
     inkscape:window-x="0"
     inkscape:window-y="27"
     inkscape:window-maximized="1"
     inkscape:current-layer="g22" /><g
     id="g10"
     inkscape:groupmode="layer"
     inkscape:label="WhiteheadAndTrefoil"
     transform="matrix(1.25,0,0,-1.25,-190.38294,139.59194)"><g
       id="g12"><g
         id="g14"
         transform="matrix(1,0,0,-1,0,122.08191)" /><g
         id="g22"
         transform="matrix(1,0,0,-1,0,122.08191)" /><g
         id="g26"
         transform="matrix(1,0,0,-1,0,122.08191)"><path
           d="m 272.938,59.465 c -1.29,-1.067 -2.852,-1.711 -4.739,-1.711 -10.863,0 -10.969,21.016 -10.969,21.016 0.106,7.953 -14.554,14.292 -25.492,14.292 -5.48,0 -10.605,-1.523 -14.976,-4.167 M 206.371,78.094 c -2.297,-4.149 -3.601,-8.922 -3.601,-14 0,-16 12.968,-28.969 28.968,-28.969 11.094,0 25.598,0.902 25.598,15.387 0,0 0,3.496 0.699,7.683 m 5.598,12.446 c 1.258,1 2.762,1.597 4.566,1.597 10.863,0 10.863,-21.726 10.863,-21.726 0,-21.727 -25.613,-36.469 -48.671,-36.469 -28,0 -50.7,22.699 -50.7,50.699 0,5.238 0.793,10.289 2.27,15.043 m 7.484,14.86 c 9.223,12.605 24.129,20.793 40.946,20.793 23.125,0 48.671,-14.227 48.699,-36.305 0,0 -0.004,-3.055 -0.594,-6.852"
           style="fill:none;stroke:#000000;stroke-width:1.60000002;stroke-linecap:round;stroke-linejoin:miter;stroke-miterlimit:4;stroke-opacity:1;stroke-dasharray:none"
           id="path28"
           inkscape:connector-curvature="0" /></g><g
         id="g30"
         transform="matrix(1,0,0,-1,0,122.08191)"><path
           d="m 214.551,47.5 c 7.418,3.07 13.812,8.363 13.812,17.496 0,10.863 -9.051,16.297 -18.105,19.012 -9.051,2.715 -10.863,2.715 -18.106,2.715 -7.242,0 -9.054,0 -18.105,-2.715 -9.055,-2.715 -18.106,-8.149 -18.106,-19.012 0,-10.863 9.051,-16.297 18.106,-19.012 1.25,-0.375 2.363,-0.699 3.371,-0.976 m 11.937,-1.731 c 0.848,-0.007 1.766,-0.007 2.797,-0.007 5.036,0 7.446,0 11.493,0.914"
           style="fill:none;stroke:#000000;stroke-width:1.60000002;stroke-linecap:round;stroke-linejoin:miter;stroke-miterlimit:4;stroke-opacity:1;stroke-dasharray:none"
           id="path32"
           inkscape:connector-curvature="0" /></g></g></g></svg>